<svg xmlns="http://www.w3.org/2000/svg" version="1.1" xmlns:xlink="http://www.w3.org/1999/xlink" xmlns:svgjs="http://svgjs.dev/svgjs" width="100%" height="100%" viewBox="0 0 1000 600"><rect width="1000" height="600" x="0" y="0" fill="#e7d045"/><g><rect width="333.3333333333333" height="333.3333333333333" rx="13.333333333333334" ry="13.333333333333334" y="191.17448410961026" fill="#a04ef6" transform="matrix(0.7398539222011811,0,0,0.7398539222011811,0,35.249809680701105)" x="168.95222473144528"/><path d="M277.7793992551176 320.98901292635867L277.7793992551176 320.98901292635867Q277.8999295915404 325.4185027899001 280.37080148820985 328.9741477143755Q282.87180596898486 332.52979263885095 286.93970482325767 335.693713969952Q291.03773626163604 338.8877678851587 296.22054072782066 341.90102629573107Q301.40334519400517 344.91428470630353 306.8573429171412 348.25900154203885Q312.3113406402772 351.60371837777427 317.5242776905675 355.5209543115184Q322.707082156752 359.4381902452625 326.83524617923615 364.41006662270695Q330.9634102017204 369.3819430001514 333.4945472666012 375.64952049414194Q336.0558169155877 381.8869654040268 336.26674500432773 389.84196760793793L336.26674500432773 389.84196760793793L336.26674500432773 390.68567996289823Q336.26674500432773 399.36386418534676 334.15746411692714 405.84236976807745Q332.01805064542066 412.29074276670235 328.52267088915676 416.9612933030895Q325.02729113289274 421.601711255371 320.38687318061125 424.64510225004915Q315.7163226442241 427.6583606606216 310.56365076214524 429.466315706965Q305.4411114641722 431.24413816920276 300.19804182977623 431.9974527718458Q294.95497219538026 432.7507673744889 290.284421658993 432.8411651268061L290.284421658993 432.8411651268061L289.22978121529263 432.8411651268061Q280.22013856768115 432.8411651268061 273.4403071438933 431.0332100804626Q266.6604757201054 429.255387618225 261.7789970949781 426.21199662354684Q256.92765105395654 423.1987382129744 253.67333197053838 419.28150227923027Q250.44914547122588 415.36426634548616 248.55079267256528 411.17583715479054Q246.65243987390468 406.9874079640949 245.8087275189444 402.85924394161077Q244.9348825798784 398.7310799191265 244.9348825798784 395.14530241054536L244.9348825798784 395.14530241054536Q244.9348825798784 391.4389945655413 246.23058369642453 388.6667968278148Q247.49615222886493 385.9247316741938 249.54516794805417 384.17704179606187Q251.62431625134914 382.4293519179298 254.3362488208643 381.5856395629696Q257.0180488062738 380.71179462390364 260.00117463274046 380.71179462390364L260.00117463274046 380.71179462390364Q262.7432397863613 380.71179462390364 265.6661004446165 381.5856395629696Q268.55882851876606 382.4293519179298 270.93930266311816 384.17704179606187Q273.34990939157615 385.9247316741938 274.88667118096805 388.6065316596033Q276.42343297035995 391.3184642291185 276.5138307226772 394.9343743218053L276.5138307226772 394.9343743218053Q276.72475881141725 402.85924394161077 280.129740815364 405.782104599866Q283.5045902352051 408.7049652581212 289.8625654815129 408.7049652581212L289.8625654815129 408.7049652581212Q293.0264868126138 408.5844349216983 295.738419382129 407.8913854872666Q298.45035195164417 407.198336052835 300.3487047503048 405.450646174703Q302.2470575489655 403.70295629657096 303.36196316087717 400.81022822242153Q304.476868772789 397.8873675641663 304.476868772789 393.4277451165191L304.476868772789 393.4277451165191Q304.476868772789 387.9134822251716 302.00599687611964 383.48399236163016Q299.5049923953445 379.02436991398304 295.4672261251775 375.22766431666184Q291.45959243911625 371.40082613523487 286.24665538882596 367.9657115471823Q281.06385092264145 364.53059695912987 275.6701183677169 361.0653497869715Q270.2763858127922 357.6302351989191 265.1237139307135 353.86366218570356Q260.00117463274046 350.09708917248804 255.8428780261505 345.6675993089466Q251.7147140036663 341.20797686129947 249.24384210699694 335.8142443063748Q246.74283762622187 330.42051175145025 246.65243987390468 323.52014999123946L246.65243987390468 323.52014999123946L246.65243987390468 321.832725281319Q246.74283762622187 310.50287365756674 249.6656982844771 302.9697276311357Q252.5885589427323 295.43658160470477 258.2534847546084 291.0070917411633Q263.91841056648457 286.54746929351614 272.1747386114529 284.709381663067Q280.4310666564213 282.84116144851214 291.1281340139533 282.84116144851214L291.1281340139533 282.84116144851214L293.9003317516799 282.84116144851214Q303.6331564178287 282.84116144851214 310.41298784161665 284.95044233591284Q317.1928192654045 287.0898558074192 321.68257429715743 290.37430747494307Q326.202461913016 293.65875914246703 328.79386414610826 297.7869231649512Q331.3852663792005 301.91508718743535 332.6508349116409 305.9227208734967Q333.9465360281871 309.9604871436637 334.2478618692443 313.4558668999276Q334.57932029440724 316.95124665619164 334.57932029440724 319.06052754359234L334.57932029440724 319.06052754359234Q334.57932029440724 322.25458145879907 333.3438843460725 324.8459836918913Q332.1385809818436 327.4373859249836 330.05943267854866 329.2453409713271Q328.0104169593594 331.0532960176705 325.17795405342133 332.0476712931594Q322.37562373158903 333.0420465686483 319.0911720640652 333.0420465686483L319.0911720640652 333.0420465686483Q316.56003499918427 333.0420465686483 314.0288979343035 332.0476712931594Q311.467628285317 331.0532960176705 309.44874515023344 329.45626906006714Q307.45999459925565 327.8592421024638 306.1642934827096 325.81022638327454Q304.89872495026907 323.7310780799795 304.89872495026907 321.6217971925788L304.89872495026907 321.6217971925788Q304.89872495026907 312.9134803860246 301.7950687873796 309.5386309661835Q298.6612800403842 306.13364896223675 292.60463063513373 306.13364896223675L292.60463063513373 306.13364896223675Q289.74203514509 306.13364896223675 287.0602351596806 306.4651073873997Q284.3483025901654 306.7965658125627 282.2992868709762 308.21279726553166Q280.22013856768115 309.62902871850076 279.0148352034522 312.61215454496744Q277.7793992551176 315.5651477873283 277.7793992551176 320.98901292635867ZM364.44071114317967 326.05128705612026L370.37683021200735 326.05128705612026L370.37683021200735 307.4293500787829Q370.37683021200735 302.9697276311357 370.8589515576989 298.7210332722286Q371.34107290339045 294.5024714974273 373.02849761331106 291.1577546616919Q374.71592232323155 287.8130378259566 377.8798436543326 285.76402210676736Q381.0738975695393 283.6848738034724 386.4676301244639 283.6848738034724L386.4676301244639 283.6848738034724Q391.7709649270714 283.6848738034724 394.96501884227814 285.76402210676736Q398.1289401733791 287.8130378259566 399.7560997150882 291.1577546616919Q401.41339184090305 294.5024714974273 401.8955131865946 298.7210332722286Q402.37763453228615 302.9697276311357 402.37763453228615 307.4293500787829L402.37763453228615 307.4293500787829L402.37763453228615 326.05128705612026L411.0558187547347 326.05128705612026Q413.79788390835563 326.05128705612026 416.57008164608214 326.32248031307176Q419.3121467997031 326.5936735700234 421.48169285531515 327.8592421024638Q423.6512389109273 329.1248106349042 424.97707261157916 331.68608028389065Q426.302906312231 334.21721734877144 426.302906312231 338.7672375487358L426.302906312231 338.7672375487358Q426.302906312231 343.1063296599601 424.97707261157916 345.6675993089466Q423.6512389109273 348.1987363738274 421.48169285531515 349.4643049062678Q419.3121467997031 350.76000602281397 416.57008164608214 351.1215970320826Q413.79788390835563 351.48318804135135 411.0558187547347 351.48318804135135L411.0558187547347 351.48318804135135L402.37763453228615 351.48318804135135L402.37763453228615 388.57639907549753Q402.37763453228615 390.68567996289823 402.52829745281485 393.06615410725044Q402.67896037334344 395.44662825160265 403.64320306472655 397.4655113866861Q404.577313172004 399.4843945217697 406.5057985547704 400.81022822242153Q408.40415135343096 402.1360619230734 411.899531109695 402.1360619230734L411.899531109695 402.1360619230734Q415.72636929112196 402.1360619230734 418.40816927653134 402.70858102108207Q421.1201018460465 403.28110011909087 422.86779172417846 404.7575967402713Q424.6154816023105 406.26422594555754 425.4591939572707 408.91589334686125Q426.302906312231 411.5374281640592 426.302906312231 415.6957247706491L426.302906312231 415.6957247706491Q426.302906312231 419.9142865454505 424.344288345359 422.98781012423433Q422.3856703784869 426.06133370301814 419.10121871096305 428.0802168381017Q415.8167670434391 430.09909997318516 411.4776749322149 431.0332100804626Q407.13858282099056 431.9974527718458 402.37763453228615 431.9974527718458L402.37763453228615 431.9974527718458Q394.8444885058552 431.9974527718458 389.48088853503634 430.40042581424245Q384.14742114832313 428.83353144074476 380.5917762238478 425.91067078248955Q377.0361312993723 422.98781012423433 374.98711558018306 418.91991126996163Q372.90796727688814 414.82187983158315 371.91359200139925 409.75960570182156Q370.8890841418046 404.6671989879542 370.64802346895885 398.79134508733796Q370.37683021200735 392.91549118672185 370.37683021200735 386.43698560399116L370.37683021200735 386.43698560399116L370.37683021200735 351.48318804135135L364.44071114317967 351.48318804135135Q361.6986459895588 351.48318804135135 358.98671342004366 351.1215970320826Q356.2747808505285 350.76000602281397 354.1654999631279 349.4643049062678Q352.0562190757272 348.1987363738274 350.73038537507534 345.6675993089466Q349.4045516744235 343.1063296599601 349.4045516744235 338.7672375487358L349.4045516744235 338.7672375487358Q349.4045516744235 334.21721734877144 350.73038537507534 331.68608028389065Q352.0562190757272 329.1248106349042 354.1654999631279 327.8592421024638Q356.2747808505285 326.5936735700234 358.98671342004366 326.32248031307176Q361.6986459895588 326.05128705612026 364.44071114317967 326.05128705612026L364.44071114317967 326.05128705612026Z " fill="#e7d045" transform="matrix(0.7398539222011811,0,0,0.7398539222011811,0,35.249809680701105)"/><path d="M618.4634126218165 320.98901292635867L618.4634126218165 320.98901292635867Q618.5839429582394 325.4185027899001 621.0548148549088 328.9741477143755Q623.5558193356839 332.52979263885095 627.6237181899567 335.693713969952Q631.721749628335 338.8877678851587 636.9045540945195 341.90102629573107Q642.0873585607042 344.91428470630353 647.5413562838402 348.25900154203885Q652.9953540069763 351.60371837777427 658.2082910572665 355.5209543115184Q663.391095523451 359.4381902452625 667.5192595459351 364.41006662270695Q671.6474235684194 369.3819430001514 674.1785606333002 375.64952049414194Q676.7398302822868 381.8869654040268 676.9507583710268 389.84196760793793L676.9507583710268 389.84196760793793L676.9507583710268 390.68567996289823Q676.9507583710268 399.36386418534676 674.8414774836261 405.84236976807745Q672.7020640121196 412.29074276670235 669.2066842558557 416.9612933030895Q665.7113044995918 421.601711255371 661.0708865473102 424.64510225004915Q656.4003360109231 427.6583606606216 651.2476641288442 429.466315706965Q646.1251248308712 431.24413816920276 640.8820551964751 431.9974527718458Q635.6389855620793 432.7507673744889 630.968435025692 432.8411651268061L630.968435025692 432.8411651268061L629.9137945819917 432.8411651268061Q620.9041519343801 432.8411651268061 614.1243205105924 431.0332100804626Q607.3444890868044 429.255387618225 602.4630104616771 426.21199662354684Q597.6116644206555 423.1987382129744 594.3573453372373 419.28150227923027Q591.133158837925 415.36426634548616 589.2348060392643 411.17583715479054Q587.3364532406036 406.9874079640949 586.4927408856435 402.85924394161077Q585.6188959465775 398.7310799191265 585.6188959465775 395.14530241054536L585.6188959465775 395.14530241054536Q585.6188959465775 391.4389945655413 586.9145970631236 388.6667968278148Q588.180165595564 385.9247316741938 590.2291813147532 384.17704179606187Q592.3083296180481 382.4293519179298 595.0202621875633 381.5856395629696Q597.7020621729727 380.71179462390364 600.6851879994393 380.71179462390364L600.6851879994393 380.71179462390364Q603.4272531530603 380.71179462390364 606.3501138113155 381.5856395629696Q609.242841885465 382.4293519179298 611.6233160298171 384.17704179606187Q614.0339227582751 385.9247316741938 615.570684547667 388.6065316596033Q617.1074463370591 391.3184642291185 617.1978440893762 394.9343743218053L617.1978440893762 394.9343743218053Q617.4087721781162 402.85924394161077 620.813754182063 405.782104599866Q624.1886036019041 408.7049652581212 630.5465788482119 408.7049652581212L630.5465788482119 408.7049652581212Q633.7105001793128 408.5844349216983 636.4224327488281 407.8913854872666Q639.1343653183432 407.198336052835 641.0327181170038 405.450646174703Q642.9310709156645 403.70295629657096 644.0459765275763 400.81022822242153Q645.1608821394881 397.8873675641663 645.1608821394881 393.4277451165191L645.1608821394881 393.4277451165191Q645.1608821394881 387.9134822251716 642.6900102428186 383.48399236163016Q640.1890057620436 379.02436991398304 636.1512394918765 375.22766431666184Q632.1436058058152 371.40082613523487 626.9306687555251 367.9657115471823Q621.7478642893404 364.53059695912987 616.3541317344159 361.0653497869715Q610.9603991794912 357.6302351989191 605.8077272974125 353.86366218570356Q600.6851879994393 350.09708917248804 596.5268913928495 345.6675993089466Q592.3987273703652 341.20797686129947 589.927855473696 335.8142443063748Q587.4268509929208 330.42051175145025 587.3364532406036 323.52014999123946L587.3364532406036 323.52014999123946L587.3364532406036 321.832725281319Q587.4268509929208 310.50287365756674 590.3497116511761 302.9697276311357Q593.2725723094313 295.43658160470477 598.9374981213074 291.0070917411633Q604.6024239331836 286.54746929351614 612.8587519781519 284.709381663067Q621.1150800231202 282.84116144851214 631.8121473806523 282.84116144851214L631.8121473806523 282.84116144851214L634.5843451183788 282.84116144851214Q644.3171697845277 282.84116144851214 651.0970012083156 284.95044233591284Q657.8768326321035 287.0898558074192 662.3665876638564 290.37430747494307Q666.886475279715 293.65875914246703 669.4778775128073 297.7869231649512Q672.0692797458995 301.91508718743535 673.3348482783399 305.9227208734967Q674.6305493948861 309.9604871436637 674.9318752359433 313.4558668999276Q675.2633336611062 316.95124665619164 675.2633336611062 319.06052754359234L675.2633336611062 319.06052754359234Q675.2633336611062 322.25458145879907 674.0278977127715 324.8459836918913Q672.8225943485426 327.4373859249836 670.7434460452477 329.2453409713271Q668.6944303260584 331.0532960176705 665.8619674201203 332.0476712931594Q663.059637098288 333.0420465686483 659.775185430764 333.0420465686483L659.775185430764 333.0420465686483Q657.2440483658833 333.0420465686483 654.7129113010025 332.0476712931594Q652.1516416520159 331.0532960176705 650.1327585169325 329.45626906006714Q648.1440079659548 327.8592421024638 646.8483068494085 325.81022638327454Q645.5827383169682 323.7310780799795 645.5827383169682 321.6217971925788L645.5827383169682 321.6217971925788Q645.5827383169682 312.9134803860246 642.4790821540786 309.5386309661835Q639.3452934070832 306.13364896223675 633.2886440018327 306.13364896223675L633.2886440018327 306.13364896223675Q630.426048511789 306.13364896223675 627.7442485263795 306.4651073873997Q625.0323159568644 306.7965658125627 622.9833002376752 308.21279726553166Q620.9041519343801 309.62902871850076 619.6988485701512 312.61215454496744Q618.4634126218165 315.5651477873283 618.4634126218165 320.98901292635867ZM705.1247245098787 326.05128705612026L711.0608435787065 326.05128705612026L711.0608435787065 307.4293500787829Q711.0608435787065 302.9697276311357 711.5429649243979 298.7210332722286Q712.0250862700896 294.5024714974273 713.7125109800102 291.1577546616919Q715.3999356899305 287.8130378259566 718.5638570210317 285.76402210676736Q721.7579109362384 283.6848738034724 727.151643491163 283.6848738034724L727.151643491163 283.6848738034724Q732.4549782937704 283.6848738034724 735.6490322089771 285.76402210676736Q738.8129535400781 287.8130378259566 740.4401130817873 291.1577546616919Q742.0974052076022 294.5024714974273 742.5795265532936 298.7210332722286Q743.0616478989853 302.9697276311357 743.0616478989853 307.4293500787829L743.0616478989853 307.4293500787829L743.0616478989853 326.05128705612026L751.7398321214337 326.05128705612026Q754.4818972750545 326.05128705612026 757.2540950127811 326.32248031307176Q759.9961601664022 326.5936735700234 762.1657062220143 327.8592421024638Q764.3352522776263 329.1248106349042 765.6610859782782 331.68608028389065Q766.98691967893 334.21721734877144 766.98691967893 338.7672375487358L766.98691967893 338.7672375487358Q766.98691967893 343.1063296599601 765.6610859782782 345.6675993089466Q764.3352522776263 348.1987363738274 762.1657062220143 349.4643049062678Q759.9961601664022 350.76000602281397 757.2540950127811 351.1215970320826Q754.4818972750545 351.48318804135135 751.7398321214337 351.48318804135135L751.7398321214337 351.48318804135135L743.0616478989853 351.48318804135135L743.0616478989853 388.57639907549753Q743.0616478989853 390.68567996289823 743.212310819514 393.06615410725044Q743.3629737400424 395.44662825160265 744.3272164314255 397.4655113866861Q745.2613265387031 399.4843945217697 747.1898119214693 400.81022822242153Q749.08816472013 402.1360619230734 752.5835444763941 402.1360619230734L752.5835444763941 402.1360619230734Q756.410382657821 402.1360619230734 759.0921826432304 402.70858102108207Q761.8041152127455 403.28110011909087 763.5518050908775 404.7575967402713Q765.2994949690094 406.26422594555754 766.1432073239698 408.91589334686125Q766.98691967893 411.5374281640592 766.98691967893 415.6957247706491L766.98691967893 415.6957247706491Q766.98691967893 419.9142865454505 765.028301712058 422.98781012423433Q763.069683745186 426.06133370301814 759.7852320776619 428.0802168381017Q756.5007804101381 430.09909997318516 752.1616882989138 431.0332100804626Q747.8225961876897 431.9974527718458 743.0616478989853 431.9974527718458L743.0616478989853 431.9974527718458Q735.5285018725542 431.9974527718458 730.1649019017354 430.40042581424245Q724.8314345150222 428.83353144074476 721.2757895905468 425.91067078248955Q717.7201446660713 422.98781012423433 715.6711289468822 418.91991126996163Q713.5919806435872 414.82187983158315 712.5976053680984 409.75960570182156Q711.5730975085037 404.6671989879542 711.3320368356578 398.79134508733796Q711.0608435787065 392.91549118672185 711.0608435787065 386.43698560399116L711.0608435787065 386.43698560399116L711.0608435787065 351.48318804135135L705.1247245098787 351.48318804135135Q702.3826593562578 351.48318804135135 699.6707267867428 351.1215970320826Q696.9587942172275 350.76000602281397 694.8495133298268 349.4643049062678Q692.7402324424261 348.1987363738274 691.4143987417742 345.6675993089466Q690.0885650411224 343.1063296599601 690.0885650411224 338.7672375487358L690.0885650411224 338.7672375487358Q690.0885650411224 334.21721734877144 691.4143987417742 331.68608028389065Q692.7402324424261 329.1248106349042 694.8495133298268 327.8592421024638Q696.9587942172275 326.5936735700234 699.6707267867428 326.32248031307176Q702.3826593562578 326.05128705612026 705.1247245098787 326.05128705612026L705.1247245098787 326.05128705612026ZM784.1624926191928 392.1621765840787L784.1624926191928 365.8865632438874Q784.1624926191928 356.1537385777385 786.8141600204965 349.37390715395065Q789.4356948376944 342.5940757301628 793.62412402839 338.0440555301984Q797.8125532190857 333.4639027461284 802.9652251011646 330.9327656812476Q808.0877643991375 328.4016286163668 813.059640776582 327.1360600839264Q818.0616497381322 325.8403589673802 822.340476681145 325.53903312632303Q826.6193036241577 325.20757470116007 829.0600429367214 325.20757470116007L829.0600429367214 325.20757470116007Q831.5007822492851 325.20757470116007 835.7494766081923 325.53903312632303Q839.9680383829937 325.8403589673802 844.7892518399094 327.1360600839264Q849.6104652968252 328.4016286163668 854.5522090901641 330.9327656812476Q859.463820299397 333.4639027461284 863.4413214013525 338.0440555301984Q867.4188225033081 342.5940757301628 869.9499595681889 349.37390715395065Q872.5112292171755 356.1537385777385 872.5112292171755 365.8865632438874L872.5112292171755 365.8865632438874L872.5112292171755 392.1621765840787Q872.5112292171755 401.9251338343332 869.9499595681889 408.7049652581212Q867.4188225033081 415.4847966819091 863.4413214013525 420.03481688187344Q859.463820299397 424.5848370818377 854.5522090901641 427.1159741467185Q849.6104652968252 429.67724379570507 844.7892518399094 430.94281232814546Q839.9680383829937 432.20838086058586 835.7494766081923 432.5398392857488Q831.5007822492851 432.8411651268061 829.0600429367214 432.8411651268061L829.0600429367214 432.8411651268061Q826.6193036241577 432.8411651268061 822.340476681145 432.5398392857488Q818.0616497381322 432.20838086058586 813.059640776582 430.94281232814546Q808.0877643991375 429.67724379570507 802.9652251011646 427.1159741467185Q797.8125532190857 424.5848370818377 793.62412402839 420.03481688187344Q789.4356948376944 415.4847966819091 786.8141600204965 408.7049652581212Q784.1624926191928 401.9251338343332 784.1624926191928 392.1621765840787L784.1624926191928 392.1621765840787ZM816.7659486215862 361.2461452916059L816.7659486215862 399.5747922740868Q816.8864789580089 402.6483158528706 818.2725778268723 404.99865741311714L818.2725778268723 404.99865741311714Q819.4176160228899 407.10793830051784 821.9186205036649 408.7350978422269Q824.4196249844399 410.3923899680417 829.0600429367214 410.3923899680417L829.0600429367214 410.3923899680417Q833.5196653843686 410.3923899680417 835.9001395287207 408.7350978422269Q838.280613673073 407.10793830051784 839.4557844531962 404.99865741311714L839.4557844531962 404.99865741311714Q840.7213529856367 402.6483158528706 840.9322810743768 399.5747922740868L840.9322810743768 399.5747922740868L840.9322810743768 361.2461452916059Q840.7213529856367 358.0520913763992 839.4557844531962 355.40042397509546L839.4557844531962 355.40042397509546Q838.280613673073 353.29114308769476 835.9001395287207 351.4229228731399Q833.5196653843686 349.5848352426907 829.0600429367214 349.5848352426907L829.0600429367214 349.5848352426907Q824.4196249844399 349.5848352426907 821.9186205036649 351.4229228731399Q819.4176160228899 353.29114308769476 818.2725778268723 355.40042397509546L818.2725778268723 355.40042397509546Q816.8864789580089 358.0520913763992 816.7659486215862 361.2461452916059L816.7659486215862 361.2461452916059ZM921.8684019823513 362.5117138240463L921.8684019823513 395.3562304992855Q921.8684019823513 397.043655209206 922.1998604075143 399.63505744229826Q922.5011862485715 402.2264596753905 923.6763570286948 404.72746415616564Q924.8213952247122 407.198336052835 927.1114716167474 409.0062910991784Q929.4015480087824 410.8142461455218 933.3187839425266 410.8142461455218L933.3187839425266 410.8142461455218Q937.9592018948078 410.8142461455218 940.6108692961116 409.75960570182156Q943.2625366974153 408.7049652581212 944.5281052298558 406.83674504356634Q945.8238063464019 404.99865741311714 946.125132187459 402.497652932342Q946.456590612622 399.9966484515669 946.456590612622 397.25458329794606L946.456590612622 397.25458329794606Q946.456590612622 395.86848442908274 946.9085793742079 394.1207945509508Q947.3907007198995 392.3731046728187 949.1986557662431 390.8363428834268Q951.0066108125864 389.2995810940349 954.5622557370618 388.305205818546Q958.0877680774315 387.28069795895135 964.2348152349994 387.28069795895135L964.2348152349994 387.28069795895135Q969.8696084627695 387.28069795895135 972.9431320415536 388.57639907549753Q975.9865230362316 389.84196760793793 977.4328870733063 391.58965748607Q978.8491185262753 393.33734736420195 979.0600466150154 395.17543499465114Q979.2709747037554 397.043655209206 979.2709747037554 398.09829565290636L979.2709747037554 398.09829565290636Q979.2709747037554 404.8781270766942 977.2219589845663 410.03079895877306Q975.1428106812714 415.1533382567461 971.6474309250073 418.91991126996163Q968.1520511687434 422.68648428317704 963.602030968779 425.21762134805795Q959.0520107688146 427.74875841293874 953.8993388867359 429.255387618225Q948.7767995887627 430.7318842394054 943.4734647861553 431.36466850562556Q938.1701299835481 431.9974527718458 933.3187839425266 431.9974527718458L933.3187839425266 431.9974527718458Q924.9419255611351 431.9974527718458 917.1074536936469 429.7676415480222Q909.2729818261587 427.5378303241987 903.1560672526966 422.7768820354943Q897.0692852633406 418.01593374678987 893.3629774183364 410.5430528885703Q889.6566695733325 403.0701720303508 889.6566695733325 392.5840327615589L889.6566695733325 392.5840327615589L889.6566695733325 367.8150486266537Q889.6566695733325 357.7507655353419 892.0371437176846 350.76000602281397Q894.4176178620366 343.73911392618027 898.2444560434637 339.09869597389877Q902.0712942248906 334.4281454375116 906.832242513595 331.83674320441924Q911.5931908022994 329.2453409713271 916.4746694274268 327.9797724388866Q921.3260154684483 326.6840713223405 925.725372747884 326.3827454812832Q930.1247300273196 326.05128705612026 933.3187839425266 326.05128705612026L933.3187839425266 326.05128705612026Q942.750282767618 326.05128705612026 949.7711748642516 327.6483140137236Q956.8221995449912 329.2453409713271 961.9146062588584 331.8970083726307Q967.0070129727258 334.5486757739344 970.3215972243554 337.98379036198696Q973.6663140600908 341.4189049500395 975.5646668587515 345.2457431314665Q977.4931522415177 349.0424487287877 978.2765994282665 352.86928691021467Q979.0600466150154 356.66599250753586 979.0600466150154 359.95044417505983L979.0600466150154 359.95044417505983Q979.0600466150154 361.668001469086 978.8491185262753 363.9279452770154Q978.6381904375353 366.21802166905036 977.2219589845663 368.2670373882396Q975.7755949474915 370.3461856915345 972.7020713687077 371.8226823127151Q969.6586803740295 373.2991789338955 964.0238871462591 373.2991789338955L964.0238871462591 373.2991789338955Q962.0050040111757 373.2991789338955 958.9917456006033 373.14851601336693Q955.9784871900308 372.9978530928382 953.1158916999871 372.0336104014551Q950.2532962099433 371.0995002941777 948.23441307486 369.0806171590941Q946.245662523882 367.06173402401066 946.245662523882 363.3554261790066L946.245662523882 363.3554261790066Q946.245662523882 360.79415653002 945.9744692669306 358.4136823856678Q945.7032760099789 356.0332082413156 944.4377074775387 354.255385779078Q943.1721389450981 352.44743073273446 940.5506041279002 351.33252512082277Q937.9592018948078 350.21761950891096 933.3187839425266 350.21761950891096L933.3187839425266 350.21761950891096Q929.4015480087824 350.21761950891096 927.1114716167474 351.48318804135135Q924.8213952247122 352.74875657379175 923.6763570286948 354.6772419565581Q922.5011862485715 356.57559475521873 922.1998604075143 358.68487564261943Q921.8684019823513 360.79415653002 921.8684019823513 362.5117138240463L921.8684019823513 362.5117138240463ZM1002.5935948015858 408.2529764965353L1002.5935948015858 307.2184219900428Q1002.5935948015858 302.75879954239565 1002.894920642643 298.5101051834886Q1003.226379067806 294.2915434086872 1004.7028756889865 291.0070917411633Q1006.1793723101671 287.72264007363935 1009.2227633048451 285.7037569385559Q1012.2360217154176 283.6848738034724 1017.6297542703421 283.6848738034724L1017.6297542703421 283.6848738034724Q1023.1440171616896 283.6848738034724 1026.1572755722623 285.7037569385559Q1029.1705339828345 287.72264007363935 1030.616898019909 291.0070917411633Q1032.0331294728785 294.2915434086872 1032.364587898041 298.5101051834886Q1032.6659137390984 302.75879954239565 1032.6659137390984 307.2184219900428L1032.6659137390984 307.2184219900428L1032.6659137390984 348.95205097647056L1034.3834710331248 348.95205097647056L1056.1994619256689 323.3092219024994Q1058.0978147243295 321.0794106786758 1060.6289517892105 320.0850354031869Q1063.190221438197 319.06052754359234 1065.932286591818 319.06052754359234L1065.932286591818 319.06052754359234Q1068.5839539931217 319.06052754359234 1071.2958865626365 320.0850354031869Q1073.9776865480462 321.0794106786758 1076.0568348513411 322.9476308932308Q1078.135983154636 324.78571852367986 1079.4316842711823 327.3771207567721Q1080.7575179718337 329.96852298986437 1080.7575179718337 333.25297465738834L1080.7575179718337 333.25297465738834Q1080.7575179718337 337.5016690162954 1077.804524729473 341.11757910898234L1077.804524729473 341.11757910898234L1058.7305989905499 363.56635426774665L1079.4919494393935 403.19070236677373Q1081.4204348221597 406.9874079640949 1082.7764011069175 410.87451131373325Q1084.162499975781 414.7314820792659 1084.162499975781 418.2268618355299L1084.162499975781 418.2268618355299Q1084.162499975781 421.601711255371 1082.6860033546004 424.2533786566747Q1081.1793741493143 426.90504605797844 1078.798900004962 428.6527359361105Q1076.4184258606097 430.40042581424245 1073.5256977864601 431.3044033374142Q1070.602837128205 432.20838086058586 1067.8607719745842 432.20838086058586L1067.8607719745842 432.20838086058586Q1064.3352596342143 432.20838086058586 1061.5931944805934 430.52095615066537Q1058.8511293269726 428.83353144074476 1056.7719810236777 426.33252695996975Q1054.7229653044883 423.83152247919463 1053.125938346885 420.9689269891509Q1051.5289113892818 418.1063314991071 1050.4742709455813 415.6957247706491L1050.4742709455813 415.6957247706491L1038.6020328079262 390.4747518741582L1032.6659137390984 390.4747518741582L1032.6659137390984 408.2529764965353Q1032.6659137390984 412.71259894418245 1032.364587898041 417.021558471301Q1032.0331294728785 421.30038541431384 1030.616898019909 424.64510225004915Q1029.1705339828345 427.9596865016788 1026.1572755722623 429.97856963676236Q1023.1440171616896 431.9974527718458 1017.6297542703421 431.9974527718458L1017.6297542703421 431.9974527718458Q1012.2360217154176 431.9974527718458 1009.2227633048451 429.97856963676236Q1006.1793723101671 427.9596865016788 1004.7028756889865 424.64510225004915Q1003.226379067806 421.30038541431384 1002.894920642643 417.021558471301Q1002.5935948015858 412.71259894418245 1002.5935948015858 408.2529764965353L1002.5935948015858 408.2529764965353ZM1134.9961693621372 353.8033970174921L1134.9961693621372 353.8033970174921Q1134.9961693621372 355.9428104889985 1136.3822682310006 357.7507655353419Q1137.7683670998636 359.5285879975796 1140.1488412442159 361.18588012339444Q1142.5293153885682 362.8130396651036 1145.6631041355636 364.41006662270695Q1148.766760298453 366.0070935803103 1152.1717423023997 367.5739879538079L1152.1717423023997 367.5739879538079Q1157.3545467685844 370.13525760279447 1162.7784119076146 373.0581182610497Q1168.172144462539 375.95084633519923 1172.6016343260808 379.86808226894334Q1177.061256773728 383.78531820268745 1179.86358709556 388.9379900847663Q1182.6659174173924 394.06052938273933 1182.6659174173924 401.05128889526725L1182.6659174173924 401.05128889526725Q1182.6659174173924 407.409264141575 1180.8278297869433 412.29074276670235Q1178.9596095723882 417.17222139182957 1175.8860859936044 420.72786631630504Q1172.8125624148206 424.2533786566747 1168.744663560548 426.60372021692126Q1164.6767647062752 428.9239291930619 1160.1568770904164 430.3100280619253Q1155.6671220586636 431.66599434668285 1150.9965715222766 432.2686460287973Q1146.356153569995 432.8411651268061 1142.1978569634052 432.8411651268061L1142.1978569634052 432.8411651268061Q1134.0620592548598 432.8411651268061 1128.0054098496094 431.4550662579428Q1121.9788930284644 430.09909997318516 1117.6398009172403 427.8090235811502Q1113.3007088060158 425.5490797732209 1110.4983784841834 422.6262191149657Q1107.6659155782454 419.7033584567105 1106.0990212047477 416.5394371256094Q1104.5019942471445 413.3453832104027 1103.869209980924 410.2417270475131Q1103.2364257147042 407.10793830051784 1103.2364257147042 404.45627089921413L1103.2364257147042 404.45627089921413Q1103.2364257147042 398.09829565290636 1106.7619380550736 395.14530241054536Q1110.3175829795491 392.1621765840787 1117.6398009172403 392.1621765840787L1117.6398009172403 392.1621765840787Q1122.9431357198473 392.1621765840787 1126.3179851396885 395.02477207412255Q1129.7229671436353 397.8873675641663 1129.9338952323756 404.24534281047397L1129.9338952323756 404.24534281047397Q1130.0242929846927 406.3546236978747 1131.1391985966043 407.62019223031507Q1132.2541042085163 408.91589334686125 1134.0017940866483 409.6993405336101Q1135.7494839647802 410.48278772035883 1137.8587648521807 410.75398097731045Q1139.9981783236872 411.02517423426195 1141.986928874665 411.02517423426195L1141.986928874665 411.02517423426195Q1146.1452254812552 411.02517423426195 1148.7366277143474 408.8556281786498Q1151.3280299474395 406.68608212303764 1151.3280299474395 403.19070236677373L1151.3280299474395 403.19070236677373Q1151.3280299474395 400.20757654030706 1149.5803400693076 397.6161743072148Q1147.8326501911756 395.02477207412255 1144.9700547011316 392.79496085029893Q1142.107459211088 390.5651496264753 1138.4614165342955 388.5161339072861Q1134.7852412733969 386.43698560399116 1130.988535676076 384.32770471659046L1130.988535676076 384.32770471659046Q1126.2275873873714 381.79656765170967 1121.4063739304556 378.9339721616659Q1116.5851604735399 376.07137667162215 1112.6679245397954 372.57599691535813Q1108.7506886060514 369.0806171590941 1106.309949293488 364.68125987965846Q1103.869209980924 360.2819026002228 1103.869209980924 354.6772419565581L1103.869209980924 354.6772419565581Q1103.869209980924 346.390781327484 1106.5510099663338 340.8463858520307Q1109.2629425358487 335.2718577924718 1114.4457470020334 331.83674320441924Q1119.6586840523237 328.4016286163668 1127.1014323264376 326.89499941108056Q1134.574313184657 325.4185027899001 1144.1263423461714 325.20757470116007L1144.1263423461714 325.20757470116007L1145.8137670560918 325.20757470116007Q1154.4015535262233 325.20757470116007 1160.3678051791567 326.6840713223405Q1166.3641894161956 328.19070052762675 1170.3416905181512 330.57117467197895Q1174.3191916201067 332.95164881633104 1176.5791354280364 335.90464205869205Q1178.869211820071 338.8877678851587 1179.9841174319831 341.90102629573107Q1181.0990230438947 344.91428470630353 1181.3400837167405 347.68648244403016Q1181.611276973692 350.428547597651 1181.611276973692 352.32690039631166L1181.611276973692 352.32690039631166Q1181.611276973692 355.5209543115184 1180.28544327304 357.5699700307076Q1178.9596095723882 359.64911833400254 1176.7900635167762 360.8544216982315Q1174.6205174611641 362.0898576465662 1171.8784523075433 362.57197899225775Q1169.1062545698164 363.02396775384364 1166.1532613274558 363.14449809026655L1166.1532613274558 363.14449809026655Q1163.6221242625747 363.14449809026655 1161.5429759592798 362.30078573530625Q1159.4939602400905 361.45707338034595 1157.9873310348044 360.1613722637999Q1156.5108344136243 358.8958037313595 1155.7273872268752 357.2987767737561Q1154.9138074560205 355.7318824002584 1154.9138074560205 354.255385779078L1154.9138074560205 354.255385779078Q1154.7028793672807 350.21761950891096 1151.689620956708 348.10833862151026Q1148.6763625461358 345.9689251500039 1144.3372704349117 345.9689251500039L1144.3372704349117 345.9689251500039Q1142.5293153885682 345.9689251500039 1140.902155846859 346.3606487433782Q1139.244863721044 346.72223975264694 1137.9190300203923 347.6262172758187Q1136.5931963197404 348.53019479899035 1135.8097491329918 350.0066914201709Q1134.9961693621372 351.48318804135135 1134.9961693621372 353.8033970174921Z " fill="#a04ef6" transform="matrix(0.7398539222011811,0,0,0.7398539222011811,0,35.249809680701105)"/></g></svg>